<?xml version="1.0" standalone="no"?><!DOCTYPE svg PUBLIC "-//W3C//DTD SVG 1.1//EN" "http://www.w3.org/Graphics/SVG/1.1/DTD/svg11.dtd"><svg t="1690611725353" class="icon" viewBox="0 0 1024 1024" version="1.1" xmlns="http://www.w3.org/2000/svg" p-id="2757" xmlns:xlink="http://www.w3.org/1999/xlink" width="200" height="200"><path d="M370.758 768v35.31H653.24V768h300.14V203.034c0-19.508-15.802-35.31-35.31-35.31H105.932c-19.508 0-35.31 15.802-35.31 35.31V768h300.136z" fill="#38454F" p-id="2758"></path><path d="M105.932 732.69h812.136V203.034H105.932z" fill="#546A79" p-id="2759"></path><path d="M221.646 599.31c-4.52 0-9.04-1.73-12.482-5.172-6.904-6.904-6.904-18.078 0-24.964l51.058-51.042c6.886-6.886 18.062-6.886 24.964 0 6.886 6.904 6.886 18.078 0 24.964l-51.058 51.042a17.606 17.606 0 0 1-12.482 5.172M413.94 599.31c-4.52 0-9.04-1.73-12.482-5.172L350.4 543.096c-6.886-6.886-6.886-18.062 0-24.964 6.886-6.886 18.078-6.886 24.964 0l51.058 51.042c6.904 6.886 6.904 18.062 0 24.964a17.606 17.606 0 0 1-12.482 5.172M478.828 606.966c-4.52 0-9.04-1.73-12.482-5.172a17.634 17.634 0 0 1 0-24.964l146.98-146.962c6.886-6.904 18.062-6.904 24.964 0 6.886 6.886 6.886 18.062 0 24.964l-146.98 146.962a17.606 17.606 0 0 1-12.482 5.172M802.362 564a17.636 17.636 0 0 1-13.594-6.374l-86.37-104.006c-6.214-7.504-5.19-18.626 2.312-24.858 7.504-6.214 18.644-5.19 24.858 2.312l86.37 103.988c6.232 7.504 5.19 18.644-2.312 24.876a17.636 17.636 0 0 1-11.264 4.062" fill="#E8EDEE" p-id="2760"></path><path d="M653.242 768v35.31H370.758V768H0v52.966c0 19.508 15.802 35.31 35.31 35.31h953.38c19.508 0 35.31-15.802 35.31-35.31V768H653.242z" fill="#B0B6BB" p-id="2761"></path><path d="M370.758 503.172c0 29.254-23.71 52.966-52.966 52.966-29.254 0-52.966-23.71-52.966-52.966 0-29.254 23.71-52.966 52.966-52.966s52.966 23.712 52.966 52.966M723.862 414.896c0 29.254-23.71 52.966-52.966 52.966s-52.966-23.71-52.966-52.966 23.71-52.966 52.966-52.966 52.966 23.712 52.966 52.966M882.758 591.448c0 29.254-23.71 52.966-52.966 52.966s-52.966-23.71-52.966-52.966c0-29.254 23.71-52.966 52.966-52.966s52.966 23.712 52.966 52.966M494.344 626.758c0 29.254-23.71 52.966-52.966 52.966s-52.966-23.71-52.966-52.966c0-29.254 23.71-52.966 52.966-52.966s52.966 23.712 52.966 52.966M247.172 626.758c0 29.254-23.71 52.966-52.966 52.966S141.24 656.014 141.24 626.758c0-29.254 23.71-52.966 52.966-52.966s52.966 23.712 52.966 52.966" fill="#25AE88" p-id="2762"></path><path d="M335.448 273.656H141.242c-9.746 0-17.656-7.91-17.656-17.656 0-9.746 7.91-17.656 17.656-17.656h194.206c9.746 0 17.656 7.91 17.656 17.656 0 9.746-7.91 17.656-17.656 17.656M564.966 273.656h-158.896c-9.746 0-17.656-7.91-17.656-17.656 0-9.746 7.91-17.656 17.656-17.656h158.896c9.746 0 17.656 7.91 17.656 17.656-0.002 9.746-7.91 17.656-17.656 17.656M247.172 344.276H141.242c-9.746 0-17.656-7.91-17.656-17.656 0-9.746 7.91-17.656 17.656-17.656h105.932c9.746 0 17.656 7.91 17.656 17.656-0.002 9.746-7.912 17.656-17.658 17.656M476.69 344.276h-158.896c-9.746 0-17.656-7.91-17.656-17.656 0-9.746 7.91-17.656 17.656-17.656h158.896c9.746 0 17.656 7.91 17.656 17.656-0.002 9.746-7.91 17.656-17.656 17.656M564.966 344.276h-17.656c-9.746 0-17.656-7.91-17.656-17.656 0-9.746 7.91-17.656 17.656-17.656h17.656c9.746 0 17.656 7.91 17.656 17.656-0.002 9.746-7.91 17.656-17.656 17.656" fill="#ECBA16" p-id="2763"></path></svg>